<?xml version="1.0" standalone="no"?>
<!DOCTYPE svg PUBLIC "-//W3C//DTD SVG 20010904//EN"
 "http://www.w3.org/TR/2001/REC-SVG-20010904/DTD/svg10.dtd">
<svg version="1.0" xmlns="http://www.w3.org/2000/svg"
 width="600.000000pt" height="600.000000pt" viewBox="0 0 600.000000 600.000000"
 preserveAspectRatio="xMidYMid meet">
<metadata>
Created by potrace 1.10, written by Peter Selinger 2001-2011
</metadata>
<g transform="translate(0.000000,600.000000) scale(0.100000,-0.100000)"
fill="#000000" stroke="none">
<path d="M2800 4385 c-14 -8 -39 -14 -56 -15 -17 0 -37 -7 -44 -15 -7 -8 -23
-15 -35 -15 -12 0 -28 -7 -35 -15 -7 -8 -20 -15 -29 -15 -9 0 -22 -5 -28 -11
-6 -6 -20 -16 -32 -23 -73 -41 -241 -181 -241 -202 0 -3 -18 -28 -39 -57 -22
-29 -44 -63 -50 -77 -6 -14 -15 -32 -20 -40 -27 -48 -41 -80 -41 -97 0 -10 -7
-27 -15 -37 -9 -12 -15 -42 -15 -72 0 -29 -5 -54 -10 -56 -17 -5 -14 -242 4
-331 8 -42 20 -86 26 -96 5 -11 10 -28 10 -39 0 -11 7 -25 15 -32 8 -7 15 -23
15 -36 0 -12 4 -25 9 -28 13 -8 51 -84 51 -101 0 -26 24 -16 43 16 9 17 17 35
17 40 0 5 8 17 18 27 9 11 24 28 33 38 41 49 286 224 314 224 7 0 18 7 25 15
7 8 20 15 30 15 10 0 23 7 30 15 7 8 20 15 30 15 10 0 23 7 30 15 7 8 18 15
24 15 10 0 89 36 168 76 14 8 33 14 41 14 8 0 20 7 27 15 7 8 23 15 35 15 12
0 28 7 35 15 7 8 20 15 30 15 10 0 23 7 30 15 7 8 19 15 27 15 13 0 47 15 93
41 8 5 24 14 35 19 11 6 34 19 50 30 17 11 37 23 45 27 48 21 153 119 171 158
5 11 13 27 18 35 46 74 54 165 21 229 -23 43 -103 121 -125 121 -8 0 -17 4
-20 10 -3 5 -31 22 -60 36 -30 14 -57 29 -60 35 -4 5 -16 9 -28 9 -12 0 -31 7
-41 15 -11 8 -34 15 -50 15 -17 1 -42 7 -56 15 -19 11 -68 14 -210 14 -142 0
-191 -3 -210 -14z m418 -70 c23 -8 51 -15 62 -15 10 0 25 -6 33 -14 8 -8 32
-18 53 -22 21 -3 59 -15 82 -26 24 -11 46 -17 49 -14 7 6 63 -62 63 -76 0 -5
7 -16 15 -24 15 -15 20 -62 15 -138 -6 -102 -116 -215 -275 -285 -27 -12 -59
-26 -70 -31 -89 -40 -116 -50 -132 -50 -10 0 -27 -7 -37 -15 -11 -8 -30 -15
-42 -15 -12 0 -35 -7 -50 -15 -16 -8 -38 -15 -49 -15 -11 0 -29 -7 -39 -15
-11 -8 -29 -15 -40 -15 -12 0 -30 -7 -40 -15 -11 -8 -27 -15 -36 -15 -9 0 -37
-11 -61 -25 -24 -14 -48 -27 -54 -29 -34 -14 -42 -18 -60 -29 -68 -42 -106
-70 -149 -111 -26 -25 -57 -46 -67 -46 -11 0 -24 -10 -29 -22 -6 -13 -19 -36
-30 -53 -11 -16 -26 -42 -32 -57 -13 -29 -38 -38 -38 -14 0 8 -14 46 -31 86
-27 65 -30 82 -32 193 l-2 122 48 0 c38 -1 47 2 47 16 0 13 -10 19 -32 21 -44
4 -49 32 -8 46 17 7 34 22 40 36 12 33 38 33 50 1 5 -13 23 -31 40 -40 26 -13
29 -19 19 -31 -6 -8 -22 -14 -35 -14 -17 0 -24 -6 -24 -20 0 -16 5 -19 28 -14
36 7 92 -36 92 -72 0 -13 -4 -24 -10 -24 -5 0 -10 -7 -10 -15 0 -8 -4 -15 -10
-15 -5 0 -10 -7 -10 -15 0 -8 5 -15 10 -15 6 0 10 7 10 15 0 8 5 15 10 15 6 0
18 8 28 18 9 9 29 24 42 33 24 16 25 18 9 50 -22 47 -40 97 -48 139 -4 19 -13
45 -19 57 -20 36 -15 217 6 256 29 54 63 97 76 97 8 0 19 6 25 14 20 24 135
35 221 22 67 -11 165 -57 211 -98 17 -16 35 -28 41 -28 6 0 20 -8 30 -17 18
-16 98 -20 121 -6 16 10 -17 23 -58 23 -27 0 -50 8 -70 24 l-30 24 28 11 c15
6 27 15 27 21 0 5 8 10 18 10 10 0 26 6 37 14 11 7 43 16 70 20 28 4 64 12 81
18 25 9 42 8 82 -5 28 -10 59 -17 69 -17 10 0 27 -7 37 -15 27 -21 36 -19 36
8 0 16 -14 30 -53 52 -47 27 -60 30 -147 30 -105 0 -187 -24 -237 -71 -15 -14
-31 -23 -37 -20 -6 2 -42 16 -81 31 -38 15 -81 33 -94 39 -27 12 -214 13 -276
1 -22 -4 -47 -13 -55 -20 -53 -44 -300 -297 -300 -308 0 -7 -13 -27 -30 -45
-16 -18 -30 -39 -30 -47 0 -8 -4 -17 -10 -20 -35 -21 23 126 87 223 53 79 156
186 211 218 25 15 56 38 68 51 12 12 28 23 35 23 8 0 22 9 32 20 9 11 24 20
32 20 8 0 15 3 15 8 0 6 18 14 120 52 108 39 351 47 448 15z m-858 -606 c0
-25 -3 -26 -50 -25 -37 1 -49 4 -45 14 3 8 5 17 5 21 0 5 14 27 31 51 l31 43
14 -39 c8 -21 14 -51 14 -65z"/>
<path d="M3335 3790 c-3 -5 3 -10 14 -10 12 0 21 5 21 10 0 6 -6 10 -14 10 -8
0 -18 -4 -21 -10z"/>
<path d="M3265 3759 c-4 -6 -5 -13 -2 -15 7 -8 57 7 57 17 0 13 -47 11 -55 -2z"/>
<path d="M3205 3730 c-4 -6 5 -10 19 -10 14 0 26 5 26 10 0 6 -9 10 -19 10
-11 0 -23 -4 -26 -10z"/>
<path d="M3135 3701 c-3 -5 -1 -12 4 -15 12 -8 41 3 41 15 0 12 -37 12 -45 0z"/>
<path d="M3734 4018 c3 -18 1 -51 -5 -73 -6 -22 -13 -51 -16 -65 -17 -72 -125
-187 -229 -242 -21 -11 -46 -26 -55 -34 -8 -8 -23 -14 -32 -14 -9 0 -20 -6
-24 -14 -4 -8 -17 -15 -27 -17 -30 -6 -32 -29 -2 -29 13 0 27 4 30 9 3 5 18
12 33 16 15 3 30 10 33 14 5 7 106 61 115 61 12 0 4 -49 -10 -60 -8 -7 -15
-20 -15 -29 0 -10 -7 -26 -15 -37 -8 -10 -15 -33 -15 -50 0 -17 -7 -37 -15
-44 -8 -7 -15 -22 -15 -34 0 -11 -7 -30 -15 -40 -8 -11 -15 -34 -15 -51 0 -17
-7 -40 -15 -51 -8 -10 -15 -32 -15 -49 0 -16 -7 -39 -15 -49 -8 -11 -15 -30
-15 -41 0 -12 -12 -53 -26 -91 -14 -38 -28 -81 -31 -96 -3 -15 -11 -33 -19
-39 -8 -6 -14 -20 -14 -31 0 -10 -5 -24 -10 -31 -6 -7 -18 -22 -28 -34 -9 -12
-27 -24 -39 -28 -29 -8 -73 39 -73 80 -1 16 -7 41 -15 55 -8 14 -14 39 -15 55
0 17 -7 52 -15 79 -8 27 -15 69 -15 93 0 24 -9 62 -20 83 -44 87 -107 26 -127
-122 -3 -21 -11 -42 -19 -49 -8 -6 -14 -20 -14 -30 0 -24 -33 -41 -64 -33 -25
6 -116 94 -116 112 0 5 -7 15 -15 22 -23 19 -19 57 8 71 70 37 122 99 82 99
-8 0 -15 -4 -15 -9 0 -5 -13 -12 -30 -16 -16 -4 -30 -11 -30 -16 0 -5 -11 -11
-25 -15 -14 -3 -25 -10 -25 -15 0 -5 -10 -14 -22 -19 -13 -6 -36 -19 -53 -30
-16 -11 -37 -23 -45 -27 -8 -3 -31 -19 -51 -35 -20 -15 -40 -28 -44 -28 -3 0
-33 -21 -66 -46 -48 -37 -59 -50 -59 -75 0 -24 4 -29 24 -29 12 0 37 5 55 11
38 13 47 8 31 -20 -9 -17 -20 -21 -60 -21 -54 0 -62 -10 -27 -33 12 -8 47 -36
77 -62 30 -26 64 -51 75 -56 11 -5 34 -18 50 -29 17 -11 37 -23 45 -26 30 -12
86 -37 113 -50 16 -8 43 -14 60 -14 18 -1 43 -7 57 -15 19 -11 65 -14 190 -14
125 0 171 3 190 14 14 8 39 15 55 15 17 0 39 7 49 15 11 8 30 15 42 15 12 0
27 7 34 15 7 8 21 15 31 15 10 0 21 5 24 11 4 5 17 14 28 20 123 53 295 235
367 389 12 25 28 57 36 72 8 14 14 36 14 48 0 11 8 35 17 53 15 27 17 63 17
232 0 169 -2 205 -17 232 -9 18 -17 43 -17 57 0 13 -7 31 -15 40 -8 8 -15 23
-15 34 0 11 -7 25 -15 32 -8 7 -15 23 -15 35 0 12 -7 28 -15 35 -8 7 -15 20
-15 30 0 10 -7 23 -15 30 -8 7 -15 19 -15 26 0 8 -10 14 -21 14 -18 0 -20 -4
-15 -32z m111 -314 c10 -63 11 -114 4 -187 -10 -109 -19 -132 -49 -142 -27 -9
-46 8 -54 45 -8 43 -23 37 -28 -12 -6 -55 10 -74 68 -83 28 -4 44 -11 44 -21
0 -14 -4 -16 -53 -19 -43 -3 -61 -27 -58 -80 2 -42 0 -45 -24 -45 -23 0 -25 3
-25 48 0 55 -12 72 -51 72 -37 0 -59 9 -59 25 0 15 22 25 54 25 37 0 58 32 54
81 -2 37 -7 45 -25 47 -20 3 -22 0 -17 -27 6 -29 -8 -61 -26 -61 -5 0 -18 16
-30 35 -19 31 -20 36 -6 62 8 15 22 35 33 45 96 86 139 142 188 240 18 35 33
54 38 49 5 -5 15 -49 22 -97z m-228 -476 c6 -7 13 -24 16 -38 9 -36 60 -63 93
-48 18 9 27 9 36 0 9 -9 5 -19 -15 -40 -19 -20 -25 -34 -21 -47 9 -22 -19 -45
-53 -45 -18 0 -23 -6 -23 -25 0 -17 -9 -29 -29 -39 -16 -9 -33 -28 -39 -44 -6
-18 -19 -32 -35 -36 -13 -3 -32 -17 -41 -31 -11 -17 -29 -27 -56 -31 -30 -5
-40 -11 -40 -25 0 -10 -4 -20 -9 -23 -27 -17 -17 93 13 139 9 14 14 30 10 36
-3 6 4 33 17 60 25 52 48 62 89 37 15 -10 23 -10 28 -2 4 6 17 14 30 18 24 8
29 21 10 32 -6 4 -19 -2 -29 -14 -22 -27 -35 -28 -42 -2 -3 11 -12 20 -21 20
-9 0 -16 5 -16 12 0 14 50 88 59 88 3 -1 15 -15 26 -32 26 -41 45 -47 45 -14
0 18 -8 30 -29 40 -39 21 -47 44 -18 56 30 12 33 12 44 -2z m171 -10 c-3 -7
-13 -15 -24 -17 -16 -3 -17 -1 -5 13 16 19 34 21 29 4z m-1111 -235 c86 -80
104 -90 146 -85 20 2 43 -1 51 -7 10 -9 17 -6 29 13 23 35 65 43 85 15 l15
-22 9 22 c9 25 28 19 28 -9 0 -10 5 -22 10 -25 6 -3 10 -33 10 -66 0 -43 4
-59 13 -59 8 0 22 -9 32 -20 16 -18 16 -21 2 -43 -14 -22 -25 -25 -104 -30
-74 -5 -93 -3 -119 13 -19 10 -42 16 -58 13 -28 -6 -86 14 -86 28 0 5 -12 9
-26 9 -33 0 -94 29 -101 47 -3 8 -19 21 -37 30 -40 21 -85 69 -92 99 -5 19 2
32 32 62 43 43 71 61 94 62 9 0 39 -21 67 -47z"/>
<path d="M2897 3314 c-9 -10 2 -24 19 -24 8 0 14 7 14 15 0 15 -21 21 -33 9z"/>
<path d="M2837 3284 c-9 -10 2 -24 19 -24 8 0 14 7 14 15 0 15 -21 21 -33 9z"/>
<path d="M2078 2379 c-10 -17 -18 -36 -18 -42 0 -7 -6 -23 -13 -37 -7 -14 -19
-64 -26 -111 -19 -118 -6 -193 56 -336 18 -42 30 -49 54 -27 23 20 24 33 5 71
-41 83 -46 105 -46 214 0 110 5 132 46 212 19 39 18 64 -5 77 -29 15 -34 13
-53 -21z"/>
<path d="M5294 2385 c-7 -18 3 -65 19 -84 33 -39 55 -196 37 -268 -6 -26 -14
-59 -17 -73 -3 -14 -12 -33 -21 -42 -8 -10 -15 -35 -16 -55 -1 -34 2 -38 26
-41 23 -3 30 2 38 25 6 15 14 37 19 48 47 115 56 271 22 373 -39 114 -49 132
-76 132 -14 0 -28 -7 -31 -15z"/>
<path d="M2660 2150 l0 -241 36 3 37 3 0 235 0 235 -36 3 -37 3 0 -241z"/>
<path d="M2839 2386 c0 -3 -1 -111 -1 -238 l-1 -233 33 0 32 0 1 235 0 235
-31 3 c-18 2 -32 1 -33 -2z"/>
<path d="M1625 2370 c-11 -5 -31 -9 -45 -9 -30 -1 -120 -75 -120 -99 0 -9 -7
-26 -15 -36 -21 -27 -19 -111 3 -168 37 -98 110 -148 213 -148 76 0 158 27
165 55 3 11 4 56 2 100 l-3 80 -75 0 c-74 0 -75 0 -78 -27 -3 -28 2 -31 63
-40 15 -2 21 -12 23 -39 3 -31 -1 -37 -33 -52 -46 -22 -63 -21 -116 2 -75 33
-93 71 -90 187 1 35 8 49 42 83 38 38 45 41 96 41 38 0 66 -6 87 -20 37 -23
72 -17 82 13 9 30 -33 60 -104 75 -66 14 -70 14 -97 2z"/>
<path d="M4180 2367 c-63 -22 -105 -124 -65 -157 16 -14 21 -60 5 -60 -21 0
-80 -74 -80 -101 0 -77 65 -139 146 -139 43 0 115 28 129 50 4 6 18 -1 36 -17
33 -32 87 -47 107 -30 12 9 4 20 -39 58 -48 42 -52 48 -39 64 17 20 41 81 43
109 1 10 -6 23 -16 30 -15 9 -21 7 -36 -13 -11 -14 -22 -42 -25 -63 -7 -45
-25 -49 -48 -10 -10 16 -37 47 -62 70 -24 22 -50 57 -58 77 -12 35 -12 38 15
61 36 31 39 30 76 -7 24 -24 37 -30 56 -25 51 13 15 84 -53 104 -47 14 -47 14
-92 -1z m54 -301 c30 -29 51 -58 47 -63 -11 -18 -49 -33 -82 -33 -63 0 -95 57
-69 124 15 40 45 32 104 -28z"/>
<path d="M4695 2370 c-11 -5 -33 -9 -49 -9 -41 -1 -111 -62 -136 -118 -51
-116 1 -264 113 -315 48 -23 134 -23 204 -1 l54 17 -3 100 -3 101 -70 0 c-69
0 -70 -1 -73 -27 -3 -22 2 -29 21 -33 13 -4 27 -5 33 -4 27 5 34 -3 34 -42 0
-36 -3 -41 -35 -55 -46 -19 -68 -18 -118 5 -72 33 -93 78 -88 192 1 29 10 46
42 78 38 38 45 41 96 41 38 0 66 -6 87 -20 38 -23 72 -17 80 13 8 29 -33 63
-88 71 -22 4 -50 9 -61 11 -11 2 -29 0 -40 -5z"/>
<path d="M726 2345 c-9 -13 -16 -33 -16 -43 0 -10 -7 -27 -15 -38 -8 -10 -15
-28 -15 -39 0 -11 -7 -29 -15 -39 -8 -11 -15 -30 -15 -42 0 -12 -7 -27 -15
-34 -8 -7 -15 -22 -15 -34 0 -11 -7 -30 -15 -40 -8 -11 -15 -27 -15 -37 0 -9
-7 -22 -15 -29 -8 -7 -15 -23 -15 -36 0 -22 4 -24 43 -24 l44 0 19 60 19 61
100 -3 100 -3 3 -34 c5 -52 29 -81 66 -81 18 0 35 2 38 5 5 6 -14 70 -31 103
-5 9 -17 37 -26 62 -9 25 -23 58 -31 73 -8 16 -14 36 -14 45 0 9 -7 26 -15 36
-8 11 -15 27 -15 36 0 9 -9 35 -20 58 -19 39 -24 42 -59 42 -30 0 -42 -5 -55
-25z m74 -104 c0 -15 7 -36 15 -47 8 -10 15 -29 15 -40 0 -12 7 -27 15 -34 26
-21 6 -30 -66 -30 -59 0 -69 2 -69 18 0 9 7 26 15 36 8 11 15 28 15 38 0 28
39 100 50 93 6 -4 10 -19 10 -34z"/>
<path d="M1045 2358 c-3 -8 -4 -111 -2 -229 l3 -214 99 -3 c179 -5 252 49 227
168 -6 25 -14 36 -32 40 -36 8 -36 36 -1 69 43 40 42 85 -2 136 l-33 38 -127
5 c-104 4 -128 2 -132 -10z m223 -70 c14 -14 16 -76 3 -97 -5 -8 -35 -15 -75
-18 l-66 -6 0 67 0 66 63 0 c36 0 68 -5 75 -12z m16 -199 c33 -39 32 -44 -3
-80 -26 -26 -36 -29 -90 -29 l-61 0 0 70 0 70 64 0 c59 0 66 -2 90 -31z"/>
<path d="M2348 2359 c-10 -5 -18 -20 -18 -33 0 -12 -7 -31 -15 -42 -8 -10 -15
-28 -15 -40 0 -11 -7 -29 -15 -40 -8 -10 -15 -29 -15 -40 0 -12 -7 -27 -15
-34 -8 -7 -15 -22 -15 -34 0 -12 -7 -31 -15 -42 -8 -10 -15 -29 -15 -40 0 -12
-7 -27 -15 -34 -8 -7 -15 -25 -15 -41 0 -26 3 -29 34 -29 39 0 44 6 67 70 l15
45 100 0 99 0 10 -41 c14 -57 32 -76 69 -72 28 3 31 6 28 33 -2 16 -9 36 -15
44 -11 13 -33 67 -44 106 -5 21 -27 72 -50 117 -7 14 -13 35 -13 45 0 10 -5
24 -11 30 -6 6 -14 26 -18 45 -6 30 -10 33 -46 35 -22 2 -48 -2 -57 -8z m67
-116 c3 -16 12 -41 20 -56 8 -16 15 -37 15 -47 0 -10 5 -22 10 -25 24 -15 -6
-25 -71 -25 -78 0 -81 4 -49 63 11 20 20 48 20 61 0 24 23 56 41 56 5 0 11
-12 14 -27z"/>
<path d="M2999 2369 c0 -2 -1 -105 -1 -229 l-1 -225 104 -3 c144 -4 210 26
224 102 10 52 -3 96 -31 106 -39 15 -41 39 -5 67 26 21 31 31 31 67 0 35 -6
48 -34 75 l-34 33 -126 5 c-69 3 -126 4 -127 2z m227 -94 c13 -20 15 -33 8
-57 -11 -36 -32 -45 -106 -47 l-48 -1 0 65 0 65 65 0 c58 0 66 -3 81 -25z m4
-177 c70 -51 16 -118 -95 -118 l-55 0 0 70 0 70 60 0 c47 0 68 -5 90 -22z"/>
<path d="M3413 2243 c-13 -2 -23 -10 -23 -16 1 -7 5 -69 9 -140 8 -113 12
-130 33 -152 28 -30 91 -34 138 -7 30 16 32 16 45 -1 8 -11 23 -17 37 -15 23
3 23 4 26 164 l2 162 -26 5 c-14 2 -35 2 -45 0 -19 -5 -19 -12 -13 -118 6
-106 6 -113 -15 -134 -26 -26 -72 -27 -94 -3 -13 14 -17 44 -19 137 -3 128 -3
128 -55 118z"/>
<path d="M3738 2243 c-10 -2 -18 -8 -18 -11 0 -6 33 -79 66 -144 8 -14 14 -32
14 -40 0 -8 5 -19 12 -26 6 -6 17 -28 24 -48 14 -40 6 -71 -29 -111 -25 -29
-16 -53 21 -53 30 0 62 26 62 51 0 9 7 24 15 35 8 10 15 27 15 36 0 10 14 47
30 81 17 35 30 71 30 79 0 9 7 21 15 28 8 7 15 19 15 28 0 8 9 29 20 47 18 29
19 34 4 45 -29 25 -67 1 -84 -52 -8 -26 -18 -50 -22 -54 -5 -4 -8 -19 -8 -34
0 -35 -23 -65 -44 -57 -10 4 -16 18 -16 40 0 19 -7 40 -15 47 -8 7 -15 21 -15
32 0 27 -26 74 -45 82 -18 6 -20 6 -47 -1z"/>
<path d="M5007 2217 c-123 -102 -62 -307 91 -307 56 0 97 19 127 59 16 21 20
42 20 112 l0 85 -40 37 c-38 35 -44 37 -105 37 -52 -1 -70 -5 -93 -23z m150
-59 c32 -30 33 -123 2 -162 -25 -32 -73 -34 -109 -5 -22 19 -25 29 -25 84 0
48 5 68 19 84 26 28 82 28 113 -1z"/>
<path d="M3022 1726 c-6 -9 -8 -88 -3 -144 2 -20 86 -12 86 8 0 10 -8 14 -22
12 -13 -2 -23 2 -23 7 0 6 0 14 -1 19 0 4 9 9 21 12 12 3 21 10 21 15 0 6 -9
12 -21 15 -33 8 -29 25 8 28 20 2 32 9 32 18 0 15 1 15 -53 18 -20 2 -41 -2
-45 -8z"/>
<path d="M3437 1733 c-3 -7 -2 -131 2 -155 2 -16 30 -7 35 10 3 10 4 45 1 77
-2 33 -4 63 -5 68 0 4 -6 7 -14 7 -8 0 -17 -3 -19 -7z"/>
<path d="M3530 1655 c0 -67 3 -85 14 -85 11 0 15 18 18 75 3 86 2 95 -18 95
-11 0 -14 -18 -14 -85z"/>
<path d="M3774 1728 c-5 -7 -9 -44 -9 -83 1 -62 3 -70 20 -70 17 0 20 8 21 72
2 74 -12 108 -32 81z"/>
<path d="M2232 1653 l3 -78 40 -2 c66 -3 111 41 68 66 -16 8 -16 13 -5 31 7
12 10 30 7 41 -5 16 -16 19 -61 19 l-55 0 3 -77z m76 30 c2 -8 -5 -13 -17 -13
-12 0 -21 6 -21 16 0 18 31 15 38 -3z m17 -52 c7 -12 -32 -34 -45 -26 -6 3
-10 13 -10 21 0 16 45 20 55 5z"/>
<path d="M2562 1710 c-12 -19 -11 -46 4 -117 3 -15 12 -23 25 -23 19 0 20 4
15 34 -4 18 -2 44 2 57 10 26 -4 69 -22 69 -6 0 -17 -9 -24 -20z"/>
<path d="M2742 1653 c3 -65 6 -78 21 -81 15 -3 17 6 17 77 0 75 -2 81 -20 81
-19 0 -21 -5 -18 -77z"/>
<path d="M2835 1696 c-10 -50 7 -120 29 -124 30 -6 42 15 22 37 -16 17 -16 22
-3 48 14 26 13 30 -3 51 -25 31 -38 28 -45 -12z"/>
<path d="M3195 1690 c-3 -6 1 -13 9 -16 22 -8 20 -36 -1 -32 -19 4 -43 -37
-35 -59 6 -18 31 -16 38 2 6 14 8 13 19 -1 19 -26 35 -7 35 40 0 35 -5 47 -25
60 -29 19 -32 19 -40 6z"/>
<path d="M3318 1679 c-12 -19 -11 -27 7 -65 21 -45 33 -52 53 -32 18 18 15 35
-10 58 -22 20 -22 22 -5 31 9 6 15 14 12 20 -11 16 -42 10 -57 -12z"/>
<path d="M3685 1686 c-16 -52 -14 -50 -38 -27 -35 32 -48 28 -35 -11 6 -18 14
-38 19 -43 4 -6 4 -17 -1 -25 -15 -24 -12 -60 5 -60 8 0 15 6 15 14 0 7 7 19
15 26 8 7 15 23 15 35 0 12 7 28 15 35 17 14 20 56 5 65 -6 3 -12 -1 -15 -9z"/>
<path d="M2397 1683 c-4 -3 -7 -21 -7 -40 0 -46 27 -70 76 -69 l39 2 0 54 c0
66 -21 81 -31 21 -5 -31 -11 -41 -25 -41 -14 0 -19 7 -19 29 0 29 -21 57 -33
44z"/>
</g>
</svg>
